<?xml version="1.0" encoding="utf-8"?>
<!-- Generator: Adobe Illustrator 16.0.3, SVG Export Plug-In . SVG Version: 6.00 Build 0)  -->
<!DOCTYPE svg PUBLIC "-//W3C//DTD SVG 1.1//EN" "http://www.w3.org/Graphics/SVG/1.1/DTD/svg11.dtd">
<svg version="1.1" xmlns="http://www.w3.org/2000/svg" xmlns:xlink="http://www.w3.org/1999/xlink" x="0px" y="0px"
	 width="737.289px" height="230.509px" viewBox="0 0 737.289 230.509" enable-background="new 0 0 737.289 230.509"
	 xml:space="preserve">
<g id="Pusteblume">
</g>
<g id="neu">
	<g>
		<g>
			<path fill="#575656" d="M139.87,149.399h-4.22V127.91h4.22c7.092,0,10.497,4.574,10.497,10.851
				C150.367,144.719,146.608,149.399,139.87,149.399z M139.87,130.321h-1.241v16.561h1.241c4.823,0,7.305-3.546,7.305-8.121
				C147.175,133.902,144.693,130.321,139.87,130.321z"/>
			<path fill="#575656" d="M168.916,130.286h-8.156v6.56h6.809l-0.425,2.341h-6.383v7.872h8.653l-0.39,2.341h-11.241v-21.525h11.667
				L168.916,130.286z"/>
			<path fill="#575656" d="M183.245,149.683c-4.113,0-6.915-2.233-6.915-6.205v-15.604h2.979v15.284
				c0,2.589,1.525,4.043,3.936,4.043c2.482,0,4.043-1.419,4.043-3.972v-15.355h2.943v15.213
				C190.231,147.165,187.465,149.683,183.245,149.683z"/>
			<path fill="#575656" d="M210.625,130.463h-5.816v18.937h-2.979v-18.937h-5.78v-2.553h14.823L210.625,130.463z"/>
			<path fill="#575656" d="M221.55,149.789c-2.589,0-4.61-0.886-6.631-2.411l1.738-2.376c1.702,1.313,3.085,2.306,5.354,2.306
				c1.844,0,3.156-1.348,3.156-3.156c0-4.575-9.717-4.469-9.717-10.852c0-3.617,2.908-5.78,6.383-5.78
				c2.305,0,4.503,0.815,6.383,2.163l-1.631,2.234c-1.49-1.063-2.979-1.844-4.858-1.844c-1.809,0-3.156,1.063-3.156,2.943
				c0,4.503,9.716,4.042,9.716,11.063C228.288,147.769,224.883,149.789,221.55,149.789z"/>
			<path fill="#575656" d="M246.411,132.307c-1.028-1.418-2.34-2.305-4.22-2.305c-3.404,0-4.823,4.078-4.823,8.795
				c0,4.574,1.383,8.439,4.929,8.439c1.915,0,3.049-0.852,4.22-1.809l1.951,1.95c-1.419,1.348-3.511,2.341-6.17,2.341
				c-5.851,0-8.192-4.752-8.192-10.922c0-6.525,2.873-11.277,8.192-11.277c2.872,0,4.964,1.276,6.418,3.121L246.411,132.307z"/>
			<path fill="#575656" d="M266.379,149.399v-10.106h-9.255v10.106h-2.943v-21.525h2.979v8.972h9.22v-8.972h2.908v21.525H266.379z"
				/>
			<path fill="#575656" d="M289.078,130.286h-8.156v6.56h6.809l-0.425,2.341h-6.383v7.872h8.653l-0.39,2.341h-11.241v-21.525h11.667
				L289.078,130.286z"/>
			<path fill="#575656" d="M309.578,149.399h-4.22V127.91h4.22c7.092,0,10.496,4.574,10.496,10.851
				C320.074,144.719,316.316,149.399,309.578,149.399z M309.578,130.321h-1.241v16.561h1.241c4.822,0,7.305-3.546,7.305-8.121
				C316.882,133.902,314.4,130.321,309.578,130.321z"/>
			<path fill="#575656" d="M326.248,149.399V127.91h2.873v21.489H326.248z"/>
			<path fill="#575656" d="M348.98,132.165c-1.348-1.312-2.907-2.128-4.822-2.128c-3.546,0-4.93,3.865-4.93,8.476
				c0,4.717,1.242,8.83,4.895,8.83c1.348,0,2.588-0.106,3.652-0.426v-7.589h-4.113l0.39-2.376h6.524v11.135
				c-1.631,0.993-3.971,1.702-6.453,1.702c-5.816,0-8.121-5-8.121-11.276s2.837-10.887,8.156-10.887c2.908,0,5.07,1.028,6.844,2.802
				L348.98,132.165z"/>
			<path fill="#575656" d="M358.417,149.399V127.91h2.872v21.489H358.417z"/>
			<path fill="#575656" d="M382.036,130.463h-5.815v18.937h-2.979v-18.937h-5.781v-2.553h14.823L382.036,130.463z"/>
			<path fill="#575656" d="M399.166,149.399l-1.596-5.887h-7.766l-1.737,5.887h-3.156l7.021-21.525h4.113l6.206,21.525H399.166z
				 M394.166,130.144h-0.354l-3.264,10.958h6.42L394.166,130.144z"/>
			<path fill="#575656" d="M418.921,149.399H408.07v-21.525h2.873v19.043h8.227L418.921,149.399z"/>
			<path fill="#575656" d="M435.767,130.286h-8.156v6.56h6.809l-0.425,2.341h-6.384v7.872h8.653l-0.39,2.341h-11.242v-21.525H436.3
				L435.767,130.286z"/>
			<path fill="#575656" d="M458.503,149.399h-5.745V127.91h5.319c4.256,0,7.199,1.915,7.199,5.354c0,2.163-1.348,3.652-3.086,4.504
				c2.163,0.886,3.582,2.801,3.582,5.318C465.773,146.917,462.794,149.399,458.503,149.399z M458.078,130.215h-2.482v6.524h2.66
				c2.482,0,3.971-1.312,3.971-3.262C462.226,131.278,460.56,130.215,458.078,130.215z M458.219,138.974h-2.624v8.05h2.908
				c2.766,0,4.148-1.596,4.148-3.937C462.652,140.711,460.878,138.974,458.219,138.974z"/>
			<path fill="#575656" d="M473.009,149.399V127.91h2.873v21.489H473.009z"/>
			<path fill="#575656" d="M490.636,149.399h-5.745V127.91h5.319c4.256,0,7.199,1.915,7.199,5.354c0,2.163-1.348,3.652-3.086,4.504
				c2.163,0.886,3.582,2.801,3.582,5.318C497.906,146.917,494.927,149.399,490.636,149.399z M490.21,130.215h-2.482v6.524h2.66
				c2.482,0,3.971-1.312,3.971-3.262C494.359,131.278,492.693,130.215,490.21,130.215z M490.352,138.974h-2.624v8.05h2.908
				c2.766,0,4.148-1.596,4.148-3.937C494.785,140.711,493.011,138.974,490.352,138.974z"/>
			<path fill="#575656" d="M515.285,149.399h-10.852v-21.525h2.873v19.043h8.227L515.285,149.399z"/>
			<path fill="#575656" d="M520.997,149.399V127.91h2.872v21.489H520.997z"/>
			<path fill="#575656" d="M539.403,149.719c-5.745,0-8.298-4.539-8.298-11.1c0-6.276,2.624-11.1,8.298-11.1
				c5.603,0,8.228,5.036,8.228,11.064C547.63,144.719,545.077,149.719,539.403,149.719z M539.403,129.825
				c-3.546,0-5.071,4.007-5.071,8.794c0,5.071,1.49,8.865,5.071,8.865c3.652,0,5-3.972,5-8.865
				C544.403,133.832,542.736,129.825,539.403,129.825z"/>
			<path fill="#575656" d="M566.605,130.463h-5.815v18.937h-2.979v-18.937h-5.78v-2.553h14.822L566.605,130.463z"/>
			<path fill="#575656" d="M584.871,149.399v-10.106h-9.256v10.106h-2.943v-21.525h2.979v8.972h9.221v-8.972h2.907v21.525H584.871z"
				/>
			<path fill="#575656" d="M607.923,130.286h-8.156v6.56h6.809l-0.426,2.341h-6.383v7.872h8.652l-0.39,2.341h-11.241v-21.525h11.666
				L607.923,130.286z"/>
			<path fill="#575656" d="M627.076,149.399l-6.383-9.894h-2.021v9.894h-2.979v-21.525h2.979v9.008h1.95l6.596-9.221l2.482,1.49
				l-6.702,8.9l7.73,11.348H627.076z"/>
		</g>
		<g>
			<path fill="#A61F4A" d="M184.848,182.767l-4.833-7.627h-1.695v7.627h-2.061v-16.33h2.039v6.916h1.649l4.993-7.076l1.695,1.053
				l-5.062,6.803l5.794,8.635H184.848z"/>
			<path fill="#A61F4A" d="M198.863,182.95c-1.008,0-1.833-0.482-2.222-1.672c-0.435,0.641-1.489,1.693-3.092,1.693
				c-2.176,0-3.458-1.373-3.458-3.596v-8.451h1.947v8.451c0,1.375,0.756,2.016,1.741,2.016c1.191,0,2.268-1.053,2.657-1.855v-8.611
				h1.947v8.842c0,0.916,0.137,1.672,0.893,1.672c0.436,0,0.756-0.16,1.031-0.322l0.573,1.33
				C200.42,182.743,199.642,182.95,198.863,182.95z"/>
			<path fill="#A61F4A" d="M206.282,182.927c-1.787,0-2.657-1.215-2.657-3.115v-14.291h1.924v13.832
				c0,1.078,0.137,2.016,0.962,2.016c0.55,0,1.1-0.342,1.649-0.756l0.917,1.283C208.412,182.536,207.358,182.927,206.282,182.927z"
				/>
			<path fill="#A61F4A" d="M214.617,182.927c-1.787,0-2.657-1.215-2.657-3.115v-7.443h-1.74v-1.443h1.763l0.687-3.848h1.214v3.848
				h3.069v1.443h-3.046v6.984c0,1.078,0.115,2.016,0.939,2.016c0.549,0,1.099-0.342,1.649-0.756l0.916,1.283
				C216.747,182.536,215.693,182.927,214.617,182.927z"/>
			<path fill="#A61F4A" d="M229.044,182.95c-1.008,0-1.833-0.482-2.222-1.672c-0.435,0.641-1.489,1.693-3.092,1.693
				c-2.176,0-3.458-1.373-3.458-3.596v-8.451h1.947v8.451c0,1.375,0.756,2.016,1.741,2.016c1.191,0,2.268-1.053,2.657-1.855v-8.611
				h1.947v8.842c0,0.916,0.137,1.672,0.893,1.672c0.436,0,0.756-0.16,1.031-0.322l0.573,1.33
				C230.602,182.743,229.823,182.95,229.044,182.95z"/>
			<path fill="#A61F4A" d="M239.234,172.804c-0.184-0.047-0.39-0.115-0.619-0.115c-1.237,0-2.222,0.848-2.909,1.971v8.107h-1.901
				v-11.91l1.489-0.16l0.389,2.244c0.687-1.168,1.695-2.199,2.932-2.199c0.481,0,0.939,0.068,1.352,0.184L239.234,172.804z"/>
			<path fill="#A61F4A" d="M260.279,182.95c-1.008,0-1.832-0.482-2.222-1.672c-0.435,0.641-1.489,1.693-3.092,1.693
				c-2.176,0-3.458-1.373-3.458-3.596v-8.451h1.947v8.451c0,1.375,0.756,2.016,1.741,2.016c1.191,0,2.268-1.053,2.657-1.855v-8.611
				h1.947v8.842c0,0.916,0.137,1.672,0.893,1.672c0.436,0,0.756-0.16,1.031-0.322l0.573,1.33
				C261.837,182.743,261.058,182.95,260.279,182.95z"/>
			<path fill="#A61F4A" d="M274.02,182.95c-1.557,0-2.428-1.146-2.428-3.162v-5.451c0-1.236-0.595-2.061-1.695-2.061
				c-1.168,0-2.199,0.939-2.909,2.084v8.406h-1.947v-11.75l1.672-0.252l0.275,2.039c0.664-1.146,1.603-2.063,3.092-2.063
				c2.016,0,3.458,1.283,3.458,3.504v5.521c0,0.893,0.138,1.672,0.893,1.672c0.39,0,0.733-0.16,1.031-0.322l0.573,1.33
				C275.531,182.767,274.844,182.95,274.02,182.95z"/>
			<path fill="#A61F4A" d="M287.393,182.95c-1.146,0-1.855-0.596-2.199-1.582c-0.321,0.527-1.123,1.65-2.703,1.65
				c-2.978,0-4.168-2.703-4.168-6.07c0-3.252,1.443-6.139,4.26-6.139c1.1,0,1.833,0.504,2.405,1.078v-6.367h1.924v14.246
				c0,0.916,0.114,1.672,0.916,1.672c0.412,0,0.733-0.16,1.008-0.322l0.572,1.33C288.904,182.767,288.148,182.95,287.393,182.95z
				 M284.987,173.833c-0.366-0.801-1.168-1.465-2.267-1.465c-1.764,0-2.291,2.244-2.291,4.557c0,2.314,0.527,4.559,2.291,4.559
				c1.099,0,2.016-1.213,2.267-1.832V173.833z"/>
			<path fill="#A61F4A" d="M314.552,182.767h-2.68l-2.887-12.941l-3.114,12.941h-2.68l-4.282-16.057l2.198-0.434l3.413,14.955
				l3.504-14.795h1.9l3.391,14.795l3.389-14.955l2.153,0.572L314.552,182.767z"/>
			<path fill="#A61F4A" d="M323.619,182.767v-10.398h-2.245v-1.307l4.214-0.273v11.979H323.619z M324.535,167.878
				c-0.802,0-1.443-0.641-1.443-1.441c0-0.803,0.642-1.443,1.443-1.443c0.801,0,1.442,0.641,1.442,1.443
				C325.977,167.237,325.335,167.878,324.535,167.878z"/>
			<path fill="#A61F4A" d="M333.259,182.972c-1.396,0-2.771-0.436-3.871-1.305l0.894-1.396c0.916,0.709,1.97,1.145,3.138,1.145
				c1.123,0,1.947-0.459,1.947-1.672c0-1.168-1.146-1.604-2.359-2.152c-1.42-0.643-3.275-1.467-3.275-3.734
				c0-2.107,2.062-3.115,3.803-3.115c1.305,0,2.541,0.436,3.664,1.076l-0.756,1.33c-0.871-0.482-1.764-0.895-2.771-0.895
				c-1.053,0-1.832,0.551-1.832,1.627c0,1.191,1.374,1.648,2.474,2.176c1.466,0.709,3.161,1.488,3.161,3.549
				C337.474,181.919,335.298,182.972,333.259,182.972z"/>
			<path fill="#A61F4A" d="M344.069,182.972c-1.397,0-2.771-0.436-3.87-1.305l0.893-1.396c0.916,0.709,1.97,1.145,3.138,1.145
				c1.122,0,1.946-0.459,1.946-1.672c0-1.168-1.145-1.604-2.358-2.152c-1.42-0.643-3.275-1.467-3.275-3.734
				c0-2.107,2.062-3.115,3.802-3.115c1.306,0,2.543,0.436,3.665,1.076l-0.756,1.33c-0.87-0.482-1.764-0.895-2.771-0.895
				c-1.054,0-1.832,0.551-1.832,1.627c0,1.191,1.374,1.648,2.474,2.176c1.466,0.709,3.16,1.488,3.16,3.549
				C348.283,181.919,346.107,182.972,344.069,182.972z"/>
			<path fill="#A61F4A" d="M353.847,177.888c0.068,1.809,0.732,3.527,2.359,3.527c1.168,0,2.176-0.436,3.045-0.963l0.871,1.49
				c-1.031,0.617-2.404,0.984-3.893,0.984c-3.184,0-4.535-2.727-4.535-6.23c0-3.412,1.625-5.932,4.535-5.932
				c2.289,0,4.029,1.42,4.029,3.551C360.259,177.224,356.755,177.728,353.847,177.888z M356.23,172.253
				c-1.811,0-2.338,2.131-2.406,4.26c1.879-0.205,4.375-0.389,4.375-2.197C358.199,173.124,357.398,172.253,356.23,172.253z"/>
			<path fill="#A61F4A" d="M373.337,182.95c-1.559,0-2.428-1.146-2.428-3.162v-5.451c0-1.236-0.596-2.061-1.695-2.061
				c-1.168,0-2.199,0.939-2.91,2.084v8.406h-1.945v-11.75l1.672-0.252l0.273,2.039c0.666-1.146,1.604-2.063,3.094-2.063
				c2.016,0,3.457,1.283,3.457,3.504v5.521c0,0.893,0.139,1.672,0.895,1.672c0.389,0,0.732-0.16,1.029-0.322l0.572,1.33
				C374.847,182.767,374.162,182.95,373.337,182.95z"/>
			<path fill="#A61F4A" d="M390.419,182.95c-3.23,0-4.65-2.543-4.65-6.115c0-3.275,1.65-6.094,4.65-6.094
				c2.953,0,4.512,2.68,4.512,6.094C394.931,180.04,393.464,182.95,390.419,182.95z M390.419,172.253
				c-1.971,0-2.543,2.314-2.543,4.582s0.389,4.604,2.543,4.604c1.945,0,2.404-2.451,2.404-4.604
				C392.824,174.567,392.32,172.253,390.419,172.253z"/>
			<path fill="#A61F4A" d="M408.007,182.95c-1.559,0-2.428-1.146-2.428-3.162v-5.451c0-1.236-0.596-2.061-1.695-2.061
				c-1.168,0-2.199,0.939-2.91,2.084v8.406h-1.945v-11.75l1.672-0.252l0.273,2.039c0.666-1.146,1.604-2.063,3.094-2.063
				c2.016,0,3.457,1.283,3.457,3.504v5.521c0,0.893,0.139,1.672,0.895,1.672c0.389,0,0.732-0.16,1.029-0.322l0.572,1.33
				C409.517,182.767,408.832,182.95,408.007,182.95z"/>
			<path fill="#A61F4A" d="M415.425,182.927c-1.787,0-2.656-1.215-2.656-3.115v-14.291h1.924v13.832
				c0,1.078,0.137,2.016,0.961,2.016c0.551,0,1.1-0.342,1.65-0.756l0.916,1.283C417.556,182.536,416.501,182.927,415.425,182.927z"
				/>
			<path fill="#A61F4A" d="M421.859,182.767v-10.398h-2.244v-1.307l4.215-0.273v11.979H421.859z M422.777,167.878
				c-0.803,0-1.443-0.641-1.443-1.441c0-0.803,0.641-1.443,1.443-1.443c0.801,0,1.441,0.641,1.441,1.443
				C424.218,167.237,423.578,167.878,422.777,167.878z"/>
			<path fill="#A61F4A" d="M438.212,182.95c-1.559,0-2.428-1.146-2.428-3.162v-5.451c0-1.236-0.596-2.061-1.695-2.061
				c-1.168,0-2.199,0.939-2.91,2.084v8.406h-1.945v-11.75l1.672-0.252l0.273,2.039c0.666-1.146,1.604-2.063,3.094-2.063
				c2.016,0,3.457,1.283,3.457,3.504v5.521c0,0.893,0.139,1.672,0.895,1.672c0.389,0,0.732-0.16,1.029-0.322l0.572,1.33
				C439.722,182.767,439.037,182.95,438.212,182.95z"/>
			<path fill="#A61F4A" d="M444.667,177.888c0.07,1.809,0.734,3.527,2.359,3.527c1.168,0,2.176-0.436,3.047-0.963l0.871,1.49
				c-1.031,0.617-2.406,0.984-3.895,0.984c-3.184,0-4.535-2.727-4.535-6.23c0-3.412,1.627-5.932,4.535-5.932
				c2.291,0,4.031,1.42,4.031,3.551C451.082,177.224,447.578,177.728,444.667,177.888z M447.05,172.253
				c-1.809,0-2.336,2.131-2.404,4.26c1.877-0.205,4.375-0.389,4.375-2.197C449.021,173.124,448.218,172.253,447.05,172.253z"/>
		</g>
	</g>
	<g>
		<defs>
			<path id="SVGID_1_" d="M133.08,75.42c2.409,0.883,4.659-0.556,6.568-1.994c2.513-1.891,4.438-3.782,5.38-0.397
				c-6.682,9.08-24.789,2.834-4.781,9.558c-1.85-0.53-4.506-0.251-7.163,0.027c-4.456,0.466-8.912,0.934-9.555-2.413
				c5.237-9.944,25.43-17.517,21.499-28.67c-6.702,14.91-14.435,14.121-26.279,23.889c0.523-5.722-1.625-5.26-4.265-4.796
				c-2.77,0.484-6.084,0.97-7.435-5.683c-0.085-0.457-0.366-0.305-0.384,0.165c-0.398,13.128-2.739,8.27-4.66,3.413
				c-1.036-2.616-1.949-5.235-2.369-5.039c-0.322,0.14,0.323,12.196-2.391,14.333c-5.322,4.202-19.708-2.359-21.498-9.558
				c-9.304,0.902-14.888-3.877-16.725-14.333c0,0-2.693-4.791-7.169-4.788C38.663,70.161,75.875,78.577,82.91,82.587
				c-5.25,0.796-30.286-5.945-37.48-15.169c-0.632,1.866-1.879,1.841-2.228,2.785v1.339c0.179,0.836,0.63,2.045,1.487,3.878
				c13.392,28.646,62.664,32.863,64.504,16.725c-2.994,26.299-5.398,37.297-15.26,56.902c-0.564-0.011-1.804,0.007-2.667,0.225
				c-8.122,2.089-11.598,13.538-11.728,20.294c-0.009,0.396-0.071,1.218,0.152,1.5h0.784c0.239-0.103,0.465-0.239,0.591-0.302
				c22.296-10.765,21.193-51.235,32.9-73.843c2.068-3.98-6.998-9.915,0-11.942c-0.487,10.047,9.079,10.029,9.563,19.109
				c-1.907,0.483-4.302-0.813-6.117-2.108c-2.616-1.865-4.031-3.731-1.049-0.276c4.207,9.296,19.592,6.82,26.363,4.347
				c4.964-1.814,5.296-3.627-6.804-0.804c-5.09-6.058-16.652-4.86-17.172-15.491c3.548,2.98,11.359,2.977,19.926,2.975
				c6.801-0.003,14.075-0.005,20.07,1.484c-7.325,0.138-10.08,1.655-16.701,4.465c27.136,8.597,13.925-3.879,29.263-13.7
				c-5.746-2.972-12.187-0.788-18.375,1.396c-6.449,2.272-12.625,4.547-17.456,0.988c15.299-3.043,37.481-11.839,33.443-26.277
				c-5.431,9.161-16.099,13.924-21.501,11.942c2.802-9.202,21.164-15.38,16.729-23.896C159.946,62.494,137.708,70.439,133.08,75.42"
				/>
		</defs>
		<clipPath id="SVGID_2_">
			<use xlink:href="#SVGID_1_"  overflow="visible"/>
		</clipPath>
		
			<linearGradient id="SVGID_3_" gradientUnits="userSpaceOnUse" x1="-125.937" y1="375.9199" x2="-124.7934" y2="375.9199" gradientTransform="matrix(112.1526 0 0 -112.1526 14167.2617 42270.4688)">
			<stop  offset="0" style="stop-color:#575656"/>
			<stop  offset="0" style="stop-color:#333333"/>
			<stop  offset="1" style="stop-color:#9C9C9C"/>
		</linearGradient>
		<rect x="38.663" y="49.13" clip-path="url(#SVGID_2_)" fill="url(#SVGID_3_)" width="134.294" height="121.936"/>
	</g>
	<g>
		<defs>
			<path id="SVGID_4_" d="M241.781,34.608c-7.044,5.029,3.844,12.685,5.59,14.911c-1.808-0.438-8.99-5.932-10.082-9.864
				c-0.806,0.917-1.44-0.334-1.31,2.478c0.524,11.025,15.87,18.921,18.6,13.953c-4.452,8.097-6.686,11.328-12.473,16.348
				c-0.177-0.083-0.58-0.237-0.887-0.287c-2.896-0.398-5.542,2.831-6.474,4.995c-0.059,0.14-0.191,0.394-0.135,0.51
				c0.076,0.12,0.367,0.086,0.467,0.078c8.623-0.521,13.638-13.723,20.412-19.469c1.197-1.009-0.944-4.125,1.587-3.855
				c-1.491,3.184,1.599,4.445,0.547,7.441c-1.658-0.236-2.846-4.279-1.997-1.721c0.22,6.163,15.958,5.377,5.841,3.736
				c-0.834-2.627-4.727-3.775-3.483-7.277c1.34,2.57,8.392,3.862,12.316,6.746c-2.382-0.935-3.468-0.8-5.983-0.776
				c7.617,6.375,5.009,0.594,11.256-0.537c-2.979-3.519-9.743-0.485-11.876-3.982c5.346,1.037,13.663,1.147,14.28-4.046
				c-2.971,2.229-7.042,2.357-8.526,1c2.125-2.597,8.868-2.156,8.566-5.495c-3.125,3.755-11.354,3.371-13.509,4.363
				c0.702,0.645,1.692,0.417,2.534,0.19c0.991-0.269,1.775-0.535,1.636,0.624c-1.381,0.842-3.044,0.588-4.134,0.337
				c-1.557-0.359-1.946-0.721,1.326,2.113c-1.404-1.109-5.456-1.126-5.076-2.987c3.005-2.519,10.527-2.282,10.739-6.4
				c-4.14,3.922-6.529,2.643-11.653,4.226c1.899-3.647-3.258-0.392-2.385-4.939c0.032-0.157-0.077-0.143-0.147,0.009
				c-1.853,4.144-1.979,2.337-1.955,0.532c0.011-0.998,0.069-1.996-0.097-1.989c-0.124,0.003-1.511,3.98-2.672,4.309
				c-2.272,0.648-6.043-3.376-5.668-5.94c-3.126-0.939-4.29-3.224-3.494-6.836C243.461,37.104,243.224,35.197,241.781,34.608z"/>
		</defs>
		<clipPath id="SVGID_5_">
			<use xlink:href="#SVGID_4_"  overflow="visible"/>
		</clipPath>
		
			<linearGradient id="SVGID_6_" gradientUnits="userSpaceOnUse" x1="-122.3379" y1="380.5732" x2="-121.195" y2="380.5732" gradientTransform="matrix(37.9945 0 0 -37.9945 4882.7573 14515.8311)">
			<stop  offset="0" style="stop-color:#575656"/>
			<stop  offset="0" style="stop-color:#333333"/>
			<stop  offset="1" style="stop-color:#9C9C9C"/>
		</linearGradient>
		<rect x="234.554" y="34.608" clip-path="url(#SVGID_5_)" fill="url(#SVGID_6_)" width="43.764" height="43.164"/>
	</g>
	<g>
		<defs>
			<path id="SVGID_7_" d="M247.371,49.519c-1.808-0.438-8.99-5.932-10.082-9.864c-0.806,0.917-1.44-0.334-1.31,2.478
				c0.524,11.025,15.87,18.921,18.6,13.953c-4.452,8.097-6.686,11.328-12.473,16.348c-0.177-0.083-0.58-0.237-0.887-0.287
				c-2.896-0.398-5.542,2.831-6.474,4.995c-0.059,0.14-0.191,0.394-0.135,0.51c0.076,0.12,0.367,0.086,0.467,0.078
				c8.623-0.521,13.638-13.723,20.412-19.469c1.197-1.009-0.944-4.125,1.587-3.855c-1.491,3.184,1.599,4.445,0.547,7.441
				c-1.658-0.236-2.846-4.279-1.997-1.721c0.22,6.163,15.958,5.377,5.841,3.736c-0.834-2.627-4.727-3.775-3.483-7.277
				c1.34,2.57,8.392,3.862,12.316,6.746c-2.382-0.935-3.468-0.8-5.983-0.776c7.617,6.375,5.009,0.594,11.256-0.537
				c-2.979-3.519-9.743-0.485-11.876-3.982c5.346,1.037,13.663,1.147,14.28-4.046c-2.971,2.229-7.042,2.357-8.526,1
				c2.125-2.597,8.868-2.156,8.566-5.495c-3.125,3.755-11.354,3.371-13.509,4.363c0.702,0.645,1.692,0.417,2.534,0.19
				c0.991-0.269,1.775-0.535,1.636,0.624c-1.381,0.842-3.044,0.588-4.134,0.337c-1.557-0.359-1.946-0.721,1.326,2.113
				c-1.404-1.109-5.456-1.126-5.076-2.987c3.005-2.519,10.527-2.282,10.739-6.4c-4.14,3.922-6.529,2.643-11.653,4.226
				c1.899-3.647-3.258-0.392-2.385-4.939c0.032-0.157-0.077-0.143-0.147,0.009c-1.853,4.144-1.979,2.337-1.955,0.532
				c0.011-0.998,0.069-1.996-0.097-1.989c-0.124,0.003-1.511,3.98-2.672,4.309c-2.272,0.648-6.043-3.376-5.668-5.94
				c-3.126-0.939-4.29-3.224-3.494-6.836c0,0-0.238-1.906-1.681-2.496C234.737,39.637,245.625,47.293,247.371,49.519"/>
		</defs>
		<clipPath id="SVGID_8_">
			<use xlink:href="#SVGID_7_"  overflow="visible"/>
		</clipPath>
		
			<linearGradient id="SVGID_9_" gradientUnits="userSpaceOnUse" x1="-124.8867" y1="381.0908" x2="-123.7435" y2="381.0908" gradientTransform="matrix(36.2028 14.8479 14.8479 -36.2028 -903.6958 15697.6904)">
			<stop  offset="0" style="stop-color:#575656"/>
			<stop  offset="0" style="stop-color:#333333"/>
			<stop  offset="1" style="stop-color:#9C9C9C"/>
		</linearGradient>
		<polygon clip-path="url(#SVGID_8_)" fill="url(#SVGID_9_)" points="240.856,19.244 293.472,40.823 272.017,93.136 219.399,71.556 
					"/>
	</g>
	<g>
		<defs>
			<path id="SVGID_10_" d="M294.208,71.495c1.443-0.408,0.866-3.243,2.092-2.266c-0.026,2.854-4.661,4.267,0.437,2.67
				c-1.222,0.446-2.771,2.936-3.781,1.999c-0.402-2.816,2.611-7.375,0.147-9.07c0.846,4.046-0.861,5.035-1.837,8.794
				c-0.779-1.302-1.147-0.79-1.65-0.275c-0.483,0.493-1.09,0.985-2.298-0.125c-0.092-0.084-0.124-0.009-0.062,0.089
				c1.909,2.799,0.626,2.077-0.506,1.353c-0.577-0.369-1.117-0.738-1.17-0.641c-0.045,0.071,1.879,2.45,1.644,3.289
				c-0.47,1.66-4.393,2.448-5.829,1.244c-1.774,1.564-3.625,1.414-5.559-0.455c0,0-1.266-0.577-2.18,0.09
				c0.423,6.264,9.297,2.455,11.335,2.233c-0.956,0.941-7.085,3.286-9.937,2.466c0.264,0.846-0.746,0.761,1.045,1.748
				c6.999,3.881,17.719-2.584,15.699-6.166c3.301,5.835,4.44,8.44,5.34,13.927c-0.117,0.078-0.37,0.269-0.509,0.444
				c-1.363,1.634-0.373,4.5,0.603,5.9c0.06,0.09,0.175,0.266,0.265,0.273c0.105,0,0.196-0.19,0.227-0.254
				c2.972-5.524-3.271-13.646-4.24-20.021c-0.166-1.124-2.907-0.989-1.777-2.451c1.395,2.133,3.355,0.703,4.805,2.499
				c-0.451,0.545-1.642,0.498-2.18,0.454c-0.39-0.034-0.443-0.066,0.356,0.12c1.706,0.972,3.727-0.411,5.043-1.796
				c1.682-1.769,2.219-3.541-0.511-0.383c-0.731-0.181-1.497-0.018-2.257,0.146c-1.265,0.272-2.512,0.543-3.565-0.768
				c2.099,0.147,5.581-3.716,8.861-5.039c-1.484,1.121-1.826,1.843-2.756,3.4c6.835-2.271,2.274-2.864,3.95-7.154
				c-3.304,0.498-4.01,5.835-6.982,5.817c2.685-2.899,5.916-8.003,2.947-10.36c0.244,2.686-1.231,5.242-2.635,5.642
				c-0.794-2.299,2.049-6.293-0.126-7.377C297.791,64.848,294.415,69.788,294.208,71.495"/>
		</defs>
		<clipPath id="SVGID_11_">
			<use xlink:href="#SVGID_10_"  overflow="visible"/>
		</clipPath>
		
			<linearGradient id="SVGID_12_" gradientUnits="userSpaceOnUse" x1="-119.8081" y1="383.0918" x2="-118.6647" y2="383.0918" gradientTransform="matrix(26.0682 0 0 -26.0682 3396.834 10066.7549)">
			<stop  offset="0" style="stop-color:#575656"/>
			<stop  offset="0" style="stop-color:#333333"/>
			<stop  offset="1" style="stop-color:#9C9C9C"/>
		</linearGradient>
		<rect x="273.658" y="61.492" clip-path="url(#SVGID_11_)" fill="url(#SVGID_12_)" width="32.683" height="37.524"/>
	</g>
	<g>
		<defs>
			<path id="SVGID_13_" d="M294.208,71.495c1.443-0.408,0.866-3.243,2.092-2.266c-0.026,2.854-4.661,4.267,0.437,2.67
				c-1.222,0.446-2.771,2.936-3.781,1.999c-0.402-2.816,2.611-7.375,0.147-9.07c0.846,4.046-0.861,5.035-1.837,8.794
				c-0.779-1.302-1.147-0.79-1.65-0.275c-0.483,0.493-1.09,0.985-2.298-0.125c-0.092-0.084-0.124-0.009-0.062,0.089
				c1.909,2.799,0.626,2.077-0.506,1.353c-0.577-0.369-1.117-0.738-1.17-0.641c-0.045,0.071,1.879,2.45,1.644,3.289
				c-0.47,1.66-4.393,2.448-5.829,1.244c-1.774,1.564-3.625,1.414-5.559-0.455c0,0-1.266-0.577-2.18,0.09
				c0.423,6.264,9.297,2.455,11.335,2.233c-0.956,0.941-7.085,3.286-9.937,2.466c0.264,0.846-0.746,0.761,1.045,1.748
				c6.999,3.881,17.719-2.584,15.699-6.166c3.301,5.835,4.44,8.44,5.34,13.927c-0.117,0.078-0.37,0.269-0.509,0.444
				c-1.363,1.634-0.373,4.5,0.603,5.9c0.06,0.09,0.175,0.266,0.265,0.273c0.105,0,0.196-0.19,0.227-0.254
				c2.972-5.524-3.271-13.646-4.24-20.021c-0.166-1.124-2.907-0.989-1.777-2.451c1.395,2.133,3.355,0.703,4.805,2.499
				c-0.451,0.545-1.642,0.498-2.18,0.454c-0.39-0.034-0.443-0.066,0.356,0.12c1.706,0.972,3.727-0.411,5.043-1.796
				c1.682-1.769,2.219-3.541-0.511-0.383c-0.731-0.181-1.497-0.018-2.257,0.146c-1.265,0.272-2.512,0.543-3.565-0.768
				c2.099,0.147,5.581-3.716,8.861-5.039c-1.484,1.121-1.826,1.843-2.756,3.4c2.798-0.93,3.687-1.578,3.875-2.314v-0.776
				c-0.153-0.895-0.65-2.031,0-3.863v-0.188c-3.241,0.565-3.957,5.822-6.907,5.804c2.685-2.899,5.916-8.003,2.947-10.36
				c0.244,2.686-1.231,5.242-2.635,5.642c-0.794-2.299,2.049-6.293-0.126-7.377C297.791,64.848,294.415,69.788,294.208,71.495"/>
		</defs>
		<clipPath id="SVGID_14_">
			<use xlink:href="#SVGID_13_"  overflow="visible"/>
		</clipPath>
		
			<linearGradient id="SVGID_15_" gradientUnits="userSpaceOnUse" x1="-117.5415" y1="375.9268" x2="-116.3986" y2="375.9268" gradientTransform="matrix(22.966 -16.6858 -16.6858 -22.966 9250.0684 6760.1885)">
			<stop  offset="0" style="stop-color:#575656"/>
			<stop  offset="0" style="stop-color:#333333"/>
			<stop  offset="1" style="stop-color:#9C9C9C"/>
		</linearGradient>
		<polygon clip-path="url(#SVGID_14_)" fill="url(#SVGID_15_)" points="255.814,74.457 293.111,47.358 321.225,86.052 
			283.926,113.15 		"/>
	</g>
	<g>
		<defs>
			<path id="SVGID_16_" d="M642.48,154.713c0,15.503,12.569,28.07,28.072,28.07c15.504,0,28.073-12.567,28.073-28.07
				c0-15.506-12.569-28.072-28.073-28.072C655.049,126.641,642.48,139.207,642.48,154.713"/>
		</defs>
		<clipPath id="SVGID_17_">
			<use xlink:href="#SVGID_16_"  overflow="visible"/>
		</clipPath>
		
			<linearGradient id="SVGID_18_" gradientUnits="userSpaceOnUse" x1="-122.4575" y1="379.0869" x2="-121.3145" y2="379.0869" gradientTransform="matrix(49.1186 0 0 -49.1186 6657.436 18774.9414)">
			<stop  offset="0" style="stop-color:#A61F4A"/>
			<stop  offset="1" style="stop-color:#E61F3C"/>
		</linearGradient>
		<rect x="642.48" y="126.641" clip-path="url(#SVGID_17_)" fill="url(#SVGID_18_)" width="56.146" height="56.143"/>
	</g>
	<g>
		<path fill="#FFFFFF" d="M656.993,162.989c-1.286,0-2.284-0.429-2.822-1.154l-1.599,7.521l-2.864,0.594l5.16-24.277h2.771
			l-0.267,1.254c1.04-0.857,2.263-1.484,3.813-1.484c4.223,0,5.297,3.794,4.344,8.279
			C664.469,158.701,661.612,162.989,656.993,162.989z M660.226,147.619c-1.154,0-2.435,0.593-3.363,1.55l-2.201,10.356
			c0.57,0.727,1.705,1.287,2.959,1.287c2.605,0,4.074-3.496,4.797-6.894C663.097,150.72,662.899,147.619,660.226,147.619z"/>
		<path fill="#FFFFFF" d="M678.937,148.377c-0.25-0.065-0.525-0.165-0.855-0.165c-1.781,0-3.46,1.221-4.793,2.837l-2.481,11.677
			h-2.738l3.646-17.152l2.194-0.23l-0.127,3.232c1.347-1.683,3.114-3.167,4.896-3.167c0.692,0,1.332,0.1,1.891,0.264
			L678.937,148.377z"/>
		<path fill="#FFFFFF" d="M684.376,162.989c-4.651,0-5.92-3.661-4.825-8.808c1.002-4.717,4.239-8.773,8.562-8.773
			c4.256,0,5.679,3.859,4.635,8.773C691.765,158.801,688.764,162.989,684.376,162.989z M687.65,147.585
			c-2.837,0-4.37,3.332-5.063,6.597c-0.694,3.267-0.849,6.631,2.253,6.631c2.803,0,4.214-3.529,4.873-6.631
			C690.406,150.917,690.388,147.585,687.65,147.585z"/>
	</g>
	<g>
		<defs>
			<rect id="SVGID_19_" x="43.109" y="34.608" width="666.065" height="148.175"/>
		</defs>
		<clipPath id="SVGID_20_">
			<use xlink:href="#SVGID_19_"  overflow="visible"/>
		</clipPath>
	</g>
</g>
</svg>
