<?xml version="1.0" encoding="UTF-8"?><svg id="a" xmlns="http://www.w3.org/2000/svg" viewBox="0 0 305.72 85.01"><defs><style>.b,.c{fill:#fff;}.c{fill-rule:evenodd;}</style></defs><path class="c" d="M6.07,0c3.11,0,4.97,3.32,4.97,3.32,1.27,7.25,5.15,10.57,11.6,9.94,1.24,5,11.22,9.55,14.92,6.63,1.88-1.48,1.44-9.85,1.66-9.94,.83-.39,4.45,15.14,4.88,1.13,.01-.32,.21-.43,.27-.11,1.83,9.02,8.86-.87,8.12,7.27,8.22-6.78,13.58-6.23,18.23-16.57,2.73,7.74-11.28,12.99-14.92,19.89,.71,3.7,8.16,.67,11.6,1.66-13.88-4.66-1.32-.33,3.32-6.63-1.15-4.13-4.42,3.08-8.29,1.66C65.63,14.78,81.06,9.27,83.97,0c3.08,5.91-9.66,10.19-11.61,16.58,3.75,1.38,11.15-1.93,14.92-8.28,2.8,10.02-12.59,16.12-23.2,18.23,6.57,4.84,16.72-5.87,24.86-1.65-10.64,6.81-1.48,15.47-20.3,9.51,4.59-1.95,6.5-3,11.59-3.1-9.39-2.34-23.33,.61-27.75-3.1,.36,7.38,8.38,6.54,11.91,10.75,19.84-4.63-8.51,8.72-13.57-2.46-3.5-4.06,1.74,2.47,4.97,1.65-.34-6.3-6.97-6.29-6.63-13.26-4.86,1.41,1.43,5.52,0,8.29-8.12,15.68-7.36,43.76-22.83,51.23-.18,.09-.68,.42-.92,.24-.19-.15-.14-.78-.14-1.07,.09-4.69,2.5-12.63,8.14-14.08,.6-.15,1.46-.16,1.85-.16,6.84-13.6,8.51-21.23,10.59-39.48-1.28,11.2-35.46,8.27-44.75-11.6-2.38-5.08-.26-3.26,.51-5.55,4.99,6.4,22.36,11.08,26,10.52C22.73,20.43-3.08,14.59,6.07,0"/><g><path class="b" d="M115.59,14.9c0,1.48-.23,2.86-.68,4.15s-1.12,2.41-1.99,3.36c-.88,.95-1.96,1.7-3.24,2.25s-2.75,.82-4.41,.82h-4.05V4.1h4.05c1.74,0,3.26,.27,4.54,.81,1.29,.54,2.37,1.29,3.23,2.25,.86,.96,1.5,2.1,1.92,3.42,.42,1.32,.63,2.76,.63,4.32Zm-2.85,0c0-1.22-.16-2.36-.48-3.42-.32-1.06-.79-1.97-1.41-2.74s-1.4-1.38-2.33-1.81c-.93-.44-2.01-.66-3.24-.66h-1.38V23.24h1.38c1.22,0,2.3-.21,3.24-.64,.93-.43,1.71-1.02,2.33-1.77s1.09-1.64,1.41-2.65c.32-1.02,.48-2.11,.48-3.27Z"/><path class="b" d="M133.34,6.28h-8.19v6.72h6.78l-.36,2.25h-6.42v7.92h8.61l-.33,2.31h-10.86V4.06l11.22,.03-.45,2.19Z"/><path class="b" d="M154.1,19.3c0,1-.16,1.9-.48,2.7-.32,.8-.77,1.48-1.37,2.04-.59,.56-1.3,.99-2.15,1.29-.84,.3-1.78,.45-2.82,.45s-1.94-.14-2.76-.4c-.82-.27-1.52-.67-2.12-1.18-.59-.52-1.04-1.15-1.37-1.9s-.48-1.61-.48-2.6V4.09h2.67v15.27c0,1.34,.36,2.38,1.08,3.11s1.71,1.1,2.97,1.1,2.29-.36,3.04-1.08,1.12-1.74,1.12-3.06V4.09h2.64v15.21h0Z"/><path class="b" d="M174.56,6.4h-5.79V25.48h-2.7V6.4h-5.76v-2.31h14.46l-.21,2.31Z"/><path class="b" d="M191.44,8.02c-.7-.56-1.45-1.03-2.24-1.41-.79-.38-1.62-.57-2.51-.57-.46,0-.9,.06-1.3,.18-.41,.12-.77,.31-1.08,.56s-.55,.56-.74,.94-.27,.82-.27,1.32c0,.54,.11,1.01,.33,1.42s.51,.78,.87,1.12,.76,.65,1.2,.94,.89,.58,1.35,.85c.7,.44,1.38,.87,2.05,1.29,.67,.42,1.26,.88,1.79,1.38s.93,1.08,1.24,1.72c.31,.65,.46,1.43,.46,2.36,0,.86-.16,1.64-.48,2.36s-.76,1.32-1.34,1.82-1.24,.89-2.02,1.17-1.62,.42-2.52,.42c-.78,0-1.49-.07-2.15-.21-.65-.14-1.24-.33-1.79-.57-.54-.24-1.04-.51-1.5-.81-.46-.3-.89-.62-1.29-.96l1.62-2.1c.32,.28,.66,.56,1.04,.84,.37,.28,.77,.54,1.2,.78s.9,.43,1.4,.58,1.04,.22,1.62,.22c.98,0,1.79-.29,2.43-.89,.64-.59,.96-1.36,.96-2.32,0-.62-.13-1.17-.39-1.64s-.6-.89-1.04-1.26c-.43-.37-.92-.72-1.47-1.03s-1.1-.65-1.66-.99c-.58-.36-1.15-.74-1.71-1.12-.56-.39-1.07-.83-1.51-1.32-.45-.49-.82-1.05-1.1-1.68s-.42-1.37-.42-2.21,.18-1.63,.52-2.31c.35-.68,.8-1.26,1.37-1.72,.56-.47,1.2-.83,1.92-1.06,.72-.24,1.46-.36,2.22-.36,1.28,0,2.46,.22,3.55,.66,1.09,.44,2.05,.99,2.9,1.65l-1.53,1.95Z"/><path class="b" d="M211.35,8.29c-.48-.68-1.07-1.22-1.76-1.63s-1.51-.62-2.48-.62c-.88,0-1.63,.25-2.26,.75s-1.15,1.17-1.54,1.99c-.4,.83-.69,1.78-.87,2.87s-.27,2.21-.27,3.39,.09,2.26,.27,3.3c.18,1.04,.48,1.96,.88,2.75,.41,.79,.93,1.42,1.57,1.89s1.42,.71,2.34,.71c.98,0,1.79-.18,2.41-.54,.63-.36,1.21-.77,1.75-1.23l1.77,1.77c-.64,.62-1.46,1.14-2.46,1.57-1,.43-2.16,.64-3.48,.64-1.42,0-2.64-.28-3.66-.82-1.02-.55-1.85-1.31-2.49-2.28s-1.11-2.11-1.41-3.43-.45-2.76-.45-4.32c0-1.64,.18-3.15,.52-4.51,.35-1.37,.86-2.55,1.53-3.54,.67-.99,1.5-1.76,2.51-2.33,1-.56,2.15-.84,3.45-.84,1.4,0,2.61,.28,3.63,.84s1.87,1.27,2.55,2.13l-2.07,1.5Z"/><path class="b" d="M231.91,25.48V15.28h-9.51v10.2h-2.64V4.06h2.67V13.12h9.48V4.06h2.61V25.48h-2.61Z"/><path class="b" d="M253.47,6.28h-8.19v6.72h6.78l-.36,2.25h-6.42v7.92h8.61l-.33,2.31h-10.86V4.06l11.22,.03-.45,2.19Z"/></g><g><path class="b" d="M137.89,44.48c0,1.48-.23,2.86-.67,4.15s-1.11,2.41-1.99,3.36-1.96,1.7-3.24,2.25-2.75,.82-4.41,.82h-4.05v-21.39h4.05c1.74,0,3.26,.27,4.55,.81s2.36,1.29,3.23,2.25c.86,.96,1.5,2.1,1.92,3.42,.42,1.32,.63,2.76,.63,4.32Zm-2.85,0c0-1.22-.16-2.36-.48-3.42-.32-1.06-.79-1.97-1.42-2.74s-1.4-1.38-2.33-1.81c-.93-.44-2.01-.66-3.24-.66h-1.39v16.98h1.39c1.22,0,2.3-.21,3.24-.64,.93-.43,1.71-1.02,2.33-1.77s1.09-1.64,1.42-2.65c.32-1.02,.48-2.11,.48-3.27Z"/><path class="b" d="M144.93,55.07v-21.39h2.61v21.39h-2.61Z"/><path class="b" d="M167.88,37.61c-.64-.64-1.36-1.15-2.15-1.53-.79-.38-1.67-.57-2.65-.57-.92,0-1.7,.24-2.34,.71-.64,.47-1.17,1.1-1.58,1.9-.41,.8-.7,1.72-.89,2.76-.18,1.04-.27,2.14-.27,3.3s.08,2.31,.26,3.4c.17,1.09,.45,2.06,.84,2.89,.39,.84,.9,1.51,1.55,2.01,.64,.5,1.43,.75,2.37,.75,.7,0,1.37-.04,2.01-.12,.64-.08,1.23-.2,1.77-.36v-7.89h-4.08l.36-2.1h6.24v11.01c-.76,.48-1.69,.87-2.79,1.17-1.1,.3-2.27,.45-3.51,.45-1.42,0-2.63-.29-3.63-.87s-1.82-1.37-2.46-2.37c-.64-1-1.11-2.18-1.41-3.56-.3-1.37-.45-2.85-.45-4.42s.17-3.03,.52-4.35,.86-2.46,1.53-3.42c.67-.96,1.51-1.71,2.51-2.25s2.15-.81,3.45-.81c1.44,0,2.69,.24,3.77,.71,1.07,.47,2.02,1.12,2.83,1.97l-1.8,1.59Z"/><path class="b" d="M177.31,55.07v-21.39h2.61v21.39h-2.61Z"/><path class="b" d="M200.37,35.99h-5.79v19.08h-2.7v-19.08h-5.76v-2.31h14.46l-.21,2.31Z"/><path class="b" d="M216.63,55.07l-1.59-5.91h-7.92l-1.74,5.91h-2.85l6.93-21.39h3.84l6.12,21.39h-2.79Zm-4.98-19.38h-.54l-3.33,11.34h6.75l-2.88-11.34Z"/><path class="b" d="M236.3,55.07h-10.53v-21.39h2.58v19.17h8.16l-.21,2.22Z"/><path class="b" d="M253.47,35.87h-8.19v6.72h6.78l-.36,2.25h-6.42v7.92h8.61l-.33,2.31h-10.86v-21.42l11.22,.03-.45,2.19Z"/></g><g><path class="b" d="M92.32,78.47c0,.94-.17,1.79-.51,2.57-.34,.77-.83,1.43-1.45,1.96s-1.38,.96-2.25,1.25c-.87,.29-1.83,.43-2.89,.43h-5.58v-21.39h5.16c1.04,0,1.99,.12,2.86,.35,.87,.23,1.61,.57,2.22,1.02,.61,.45,1.08,1,1.42,1.65,.34,.65,.51,1.4,.51,2.24,0,1.12-.31,2.06-.93,2.82-.62,.76-1.4,1.34-2.34,1.74,1.14,.42,2.05,1.09,2.74,2.01,.69,.92,1.03,2.04,1.03,3.36Zm-3.27-9.72c0-1.18-.4-2.04-1.19-2.6-.79-.55-1.81-.83-3.07-.83h-2.61v6.87h2.79c1.28,0,2.28-.31,3-.94,.72-.63,1.08-1.46,1.08-2.5Zm.45,9.72c0-1.26-.42-2.29-1.24-3.09-.83-.8-1.94-1.2-3.32-1.2h-2.76v8.4h3.03c1.44,0,2.52-.38,3.23-1.14,.71-.76,1.07-1.75,1.07-2.97Z"/><path class="b" d="M99.32,84.68v-21.39h2.61v21.39h-2.61Z"/><path class="b" d="M122.79,78.47c0,.94-.17,1.79-.51,2.57-.34,.77-.83,1.43-1.45,1.96s-1.38,.96-2.25,1.25c-.87,.29-1.83,.43-2.89,.43h-5.58v-21.39h5.16c1.04,0,1.99,.12,2.86,.35,.87,.23,1.61,.57,2.22,1.02,.61,.45,1.08,1,1.42,1.65,.34,.65,.51,1.4,.51,2.24,0,1.12-.31,2.06-.93,2.82-.62,.76-1.4,1.34-2.34,1.74,1.14,.42,2.05,1.09,2.74,2.01,.69,.92,1.03,2.04,1.03,3.36Zm-3.27-9.72c0-1.18-.4-2.04-1.19-2.6-.79-.55-1.81-.83-3.07-.83h-2.61v6.87h2.79c1.28,0,2.28-.31,3-.94,.72-.63,1.08-1.46,1.08-2.5Zm.45,9.72c0-1.26-.42-2.29-1.24-3.09-.83-.8-1.94-1.2-3.32-1.2h-2.76v8.4h3.03c1.44,0,2.52-.38,3.23-1.14,.71-.76,1.07-1.75,1.07-2.97Z"/><path class="b" d="M140.33,84.68h-10.53v-21.39h2.58v19.17h8.16l-.21,2.22Z"/><path class="b" d="M146.73,84.68v-21.39h2.61v21.39h-2.61Z"/><path class="b" d="M173.04,73.94c0,1.54-.16,2.98-.48,4.32-.32,1.34-.82,2.51-1.48,3.51s-1.51,1.79-2.52,2.37c-1.01,.58-2.21,.87-3.59,.87s-2.61-.27-3.63-.79c-1.02-.53-1.86-1.28-2.52-2.25s-1.15-2.13-1.47-3.48c-.32-1.35-.48-2.85-.48-4.51s.16-3.04,.49-4.38,.83-2.51,1.48-3.49c.66-.99,1.5-1.76,2.52-2.33,1.02-.56,2.22-.84,3.6-.84s2.61,.29,3.63,.87c1.02,.58,1.86,1.37,2.52,2.37,.66,1,1.15,2.17,1.46,3.49,.31,1.33,.46,2.76,.46,4.27Zm-2.94,.03c0-1.2-.1-2.35-.32-3.44s-.52-2.05-.94-2.88-.96-1.49-1.6-1.98c-.65-.49-1.41-.74-2.27-.74-.92,0-1.71,.25-2.35,.74-.65,.49-1.18,1.15-1.6,1.98-.42,.83-.73,1.79-.91,2.88-.19,1.09-.28,2.24-.28,3.44,0,1.28,.09,2.47,.28,3.57,.19,1.1,.49,2.06,.9,2.86s.94,1.45,1.59,1.92c.65,.47,1.44,.71,2.39,.71s1.73-.24,2.39-.72c.65-.48,1.18-1.14,1.59-1.96,.41-.83,.71-1.79,.89-2.88,.18-1.09,.27-2.25,.27-3.5Z"/><path class="b" d="M192.17,65.6h-5.79v19.08h-2.7v-19.08h-5.76v-2.31h14.46l-.21,2.31Z"/><path class="b" d="M210.57,84.68v-10.2h-9.51v10.2h-2.64v-21.42h2.67v9.06h9.48v-9.06h2.61v21.42h-2.61Z"/><path class="b" d="M232.13,65.48h-8.19v6.72h6.78l-.36,2.25h-6.42v7.92h8.61l-.33,2.31h-10.86v-21.42l11.22,.03-.45,2.19Z"/><path class="b" d="M250.62,84.68l-6.33-9.99h-2.22v9.99h-2.7v-21.39h2.67v9.03h2.16l6.54-9.24,2.22,1.38-6.63,8.91,7.59,11.31h-3.3Z"/></g><g><path class="c" d="M288.63,25.9c-.73-.31-1.62-.47-2.68-.47s-1.95,.16-2.68,.47c-.73,.31-1.28,.76-1.65,1.33-.37,.57-.56,1.24-.56,2s.19,1.43,.56,2c.38,.57,.93,1.01,1.65,1.33,.73,.31,1.62,.47,2.68,.47s1.95-.16,2.68-.47c.73-.31,1.28-.76,1.65-1.33,.38-.57,.56-1.24,.56-2s-.19-1.43-.56-2c-.38-.57-.93-1.01-1.65-1.33Z"/><path class="c" d="M284.6,43.83c-.33-.2-.74-.3-1.24-.3s-.92,.1-1.26,.3c-.34,.2-.6,.5-.78,.9-.18,.4-.27,.91-.27,1.52v2.13h4.53v-2.15c0-.6-.08-1.11-.25-1.51-.17-.4-.41-.7-.75-.9Z"/><path class="c" d="M284.85,59.22c-.38-.2-.81-.3-1.3-.3s-.93,.1-1.3,.3c-.37,.2-.66,.5-.87,.9-.21,.4-.31,.91-.31,1.52v2.13h4.99v-2.15c0-.61-.11-1.11-.32-1.51-.21-.4-.51-.69-.88-.89Z"/><path class="c" d="M300.06,4.09h-33.86V84.68h33.86c3.12,0,5.66-2.53,5.66-5.66V9.75c0-3.12-2.53-5.66-5.66-5.66Zm-6.62,62.84h-14.97v-5.91c0-1.14,.22-2.1,.65-2.9,.43-.8,1.03-1.41,1.79-1.83,.76-.42,1.64-.63,2.63-.63s1.87,.21,2.63,.64c.76,.43,1.35,1.05,1.78,1.86,.42,.81,.64,1.79,.64,2.94v2.66h4.85v3.16Zm0-23.7l-5.31,2.84v2.31h5.31v3.16h-14.97v-5.91c0-1.13,.2-2.1,.6-2.9,.4-.8,.97-1.41,1.7-1.83,.73-.42,1.59-.63,2.58-.63s1.85,.21,2.56,.64c.71,.43,1.26,1.05,1.64,1.86,.02,.04,.04,.1,.06,.14l5.82-3.18v3.49Zm-.7-10.42c-.6,1.06-1.48,1.89-2.62,2.51-1.15,.61-2.53,.92-4.16,.92s-3.02-.31-4.17-.92c-1.15-.61-2.02-1.45-2.62-2.51-.6-1.06-.9-2.25-.9-3.58s.3-2.51,.9-3.57c.6-1.06,1.48-1.9,2.62-2.51,1.15-.62,2.53-.93,4.17-.93s3.02,.31,4.17,.93c1.15,.62,2.02,1.45,2.62,2.51,.6,1.06,.9,2.25,.9,3.57s-.3,2.52-.91,3.58Z"/></g></svg>